<svg width="105" height="105" viewBox="0 0 105 105" fill="none" xmlns="http://www.w3.org/2000/svg">
<g filter="url(#filter0_d_111663_80)">
<circle cx="52.5" cy="42.5" r="32.5" fill="url(#paint0_linear_111663_80)" shape-rendering="crispEdges"/>
</g>
<path d="M52.3819 43.8915C48.285 43.8915 44.188 43.8915 40.0911 43.8908C39.9614 43.8908 39.8273 43.8945 39.7022 43.8669C39.2544 43.7686 38.9519 43.3372 39.0063 42.8932C39.0607 42.4484 39.4399 42.1116 39.913 42.1094C40.9836 42.1034 42.055 42.1064 43.1256 42.1064C50.3234 42.1064 57.5212 42.1072 64.719 42.1087C64.8575 42.1087 65.0013 42.1049 65.1347 42.1362C65.5743 42.2398 65.8641 42.6555 65.8179 43.0921C65.7702 43.5391 65.3947 43.8871 64.9246 43.8893C63.7139 43.8967 62.504 43.893 61.2933 43.893C58.3228 43.893 55.3524 43.893 52.3827 43.893C52.3819 43.893 52.3819 43.8923 52.3819 43.8915Z" fill="white"/>
<path d="M49.5553 55C48.2045 54.7974 46.8195 54.7214 45.5112 54.3652C42.765 53.6165 41.1953 51.7241 40.7445 48.9272C40.5776 47.8924 40.4748 46.8471 40.3556 45.8055C40.2833 45.176 40.5836 44.7632 41.1319 44.6954C41.6765 44.6284 42.0759 44.9815 42.1362 45.5276C42.2659 46.7078 42.356 47.8976 42.5788 49.0613C42.9811 51.1631 44.7021 52.6286 46.8367 52.8163C47.8462 52.905 48.8542 53.0175 49.8608 53.1337C50.5954 53.2186 50.9344 54.0344 50.4948 54.6312C50.3048 54.8897 50.0805 54.9635 49.5553 55Z" fill="white"/>
<path d="M64.4463 40.3981C64.4306 40.5352 64.4321 40.6775 64.3949 40.8086C64.3077 41.1185 64.0015 41.3778 63.7422 41.383C63.3004 41.3919 62.7998 41.0641 62.6977 40.6499C62.6247 40.3556 62.6224 40.0442 62.5822 39.7409C62.457 38.7843 62.3967 37.8135 62.1881 36.8755C61.7604 34.9556 60.5326 33.7375 58.6142 33.3225C57.4742 33.0759 56.2971 32.9999 55.1363 32.8471C55.0074 32.83 54.8756 32.824 54.7504 32.792C54.3309 32.6855 54.0583 32.2869 54.1112 31.8704C54.17 31.4077 54.5269 31.0538 54.9732 31.0859C56.5042 31.1954 58.0427 31.3064 59.5119 31.7765C61.8632 32.5298 63.3451 34.1577 63.9054 36.5395C64.2012 37.7986 64.3017 39.1032 64.4902 40.3869C64.4761 40.3914 64.4612 40.3943 64.4463 40.3981Z" fill="white"/>
<path d="M64.4225 45.8808C64.2988 47.1674 64.2086 48.5808 63.8167 49.9442C63.0777 52.5146 60.8962 54.2892 58.2372 54.5492C57.1554 54.655 56.0781 54.8108 54.9993 54.9441C54.6171 54.9918 54.2013 54.623 54.1209 54.1648C54.0404 53.7059 54.3287 53.2551 54.7832 53.194C55.3263 53.1203 55.8777 53.1061 56.4208 53.0331C57.3223 52.9132 58.2566 52.8804 59.1133 52.6084C60.97 52.0199 62.0071 50.6639 62.279 48.7454C62.4235 47.7255 62.5308 46.7003 62.6336 45.6751C62.6932 45.0821 63.0799 44.6686 63.6007 44.6984C64.1043 44.7275 64.4515 45.1745 64.4225 45.8808Z" fill="white"/>
<path d="M40.3295 40.2751C40.5276 38.9549 40.6208 37.6079 40.9449 36.319C41.6005 33.7106 43.3491 32.1185 45.959 31.5329C47.1339 31.2692 48.3475 31.1775 49.5448 31.0173C49.7266 30.9927 49.9225 30.9913 50.0984 31.033C50.5119 31.1306 50.7547 31.5098 50.7153 31.9404C50.6735 32.3912 50.3681 32.6907 49.9285 32.7398C48.8475 32.8605 47.7642 32.9708 46.6869 33.1228C44.4108 33.4432 42.8335 35.0234 42.5236 37.2846C42.3753 38.3693 42.2569 39.4586 42.1295 40.5463C42.0781 40.9844 41.7018 41.3122 41.2421 41.3063C40.7959 41.3003 40.4151 40.9449 40.3906 40.5083C40.3861 40.4346 40.3898 40.3601 40.3898 40.2856C40.3697 40.2818 40.3496 40.2789 40.3295 40.2751Z" fill="white"/>
<defs>
<filter id="filter0_d_111663_80" x="0" y="0" width="105" height="105" filterUnits="userSpaceOnUse" color-interpolation-filters="sRGB">
<feFlood flood-opacity="0" result="BackgroundImageFix"/>
<feColorMatrix in="SourceAlpha" type="matrix" values="0 0 0 0 0 0 0 0 0 0 0 0 0 0 0 0 0 0 127 0" result="hardAlpha"/>
<feOffset dy="10"/>
<feGaussianBlur stdDeviation="10"/>
<feComposite in2="hardAlpha" operator="out"/>
<feColorMatrix type="matrix" values="0 0 0 0 0.829167 0 0 0 0 0.829167 0 0 0 0 0.829167 0 0 0 1 0"/>
<feBlend mode="normal" in2="BackgroundImageFix" result="effect1_dropShadow_111663_80"/>
<feBlend mode="normal" in="SourceGraphic" in2="effect1_dropShadow_111663_80" result="shape"/>
</filter>
<linearGradient id="paint0_linear_111663_80" x1="53" y1="-0.999999" x2="53" y2="81" gradientUnits="userSpaceOnUse">
<stop stop-color="#46A358" stop-opacity="0.4"/>
<stop offset="1" stop-color="#46A358"/>
</linearGradient>
</defs>
</svg>
