<svg width="35" height="35" viewBox="0 0 35 35" fill="none" xmlns="http://www.w3.org/2000/svg">
<circle cx="17.5" cy="17.5" r="17.5" fill="white"/>
<path d="M17.5 26.2349C17.2722 26.2349 17.0526 26.1523 16.8815 26.0024C16.2351 25.4373 15.6119 24.9061 15.0621 24.4376L15.0593 24.4352C13.4474 23.0615 12.0554 21.8752 11.0869 20.7067C10.0043 19.4003 9.5 18.1616 9.5 16.8085C9.5 15.4938 9.95081 14.2809 10.7693 13.3931C11.5975 12.4948 12.734 12 13.9697 12C14.8933 12 15.7391 12.292 16.4836 12.8678C16.8594 13.1584 17.2 13.5142 17.5 13.9291C17.8002 13.5142 18.1406 13.1584 18.5165 12.8678C19.261 12.292 20.1068 12 21.0304 12C22.266 12 23.4026 12.4948 24.2308 13.3931C25.0493 14.2809 25.5 15.4938 25.5 16.8085C25.5 18.1616 24.9958 19.4003 23.9132 20.7065C22.9447 21.8752 21.5529 23.0614 19.9412 24.4349C19.3904 24.9042 18.7662 25.4362 18.1184 26.0027C17.9474 26.1523 17.7277 26.2349 17.5 26.2349ZM13.9697 12.9373C12.9989 12.9373 12.1071 13.3247 11.4583 14.0283C10.7998 14.7426 10.4371 15.7299 10.4371 16.8085C10.4371 17.9465 10.8601 18.9644 11.8085 20.1086C12.7251 21.2147 14.0885 22.3766 15.6671 23.7219L15.67 23.7244C16.2219 24.1947 16.8475 24.7279 17.4987 25.2972C18.1537 24.7268 18.7803 24.1927 19.3333 23.7217C20.9117 22.3763 22.275 21.2147 23.1917 20.1086C24.1399 18.9644 24.5629 17.9465 24.5629 16.8085C24.5629 15.7299 24.2002 14.7426 23.5417 14.0283C22.8931 13.3247 22.0011 12.9373 21.0304 12.9373C20.3192 12.9373 19.6663 13.1633 19.0897 13.6091C18.5759 14.0066 18.218 14.509 18.0082 14.8606C17.9003 15.0414 17.7103 15.1493 17.5 15.1493C17.2897 15.1493 17.0997 15.0414 16.9918 14.8606C16.7821 14.509 16.4242 14.0066 15.9103 13.6091C15.3337 13.1633 14.6808 12.9373 13.9697 12.9373Z" fill="currentColor"/>
</svg>
