<svg width="28" height="28" viewBox="0 0 28 28" fill="none" xmlns="http://www.w3.org/2000/svg">
<circle cx="14" cy="14" r="13.5" stroke="currentColor"/>
<path d="M9.54 17.588C10.458 19.19 12.114 20.216 14.13 20.216C16.506 20.216 18.288 18.83 18.288 16.652C18.288 15.05 17.352 14.06 15.354 13.178L14.004 12.584C12.996 12.134 12.618 11.846 12.618 11.216C12.618 10.478 13.248 10.064 14.094 10.064C14.994 10.064 15.75 10.514 16.362 11.432L18.018 10.154C17.28 8.786 15.912 7.904 14.094 7.904C11.844 7.904 10.152 9.236 10.152 11.27C10.152 12.854 11.214 13.88 13.032 14.69L14.31 15.266C15.444 15.788 15.822 16.04 15.822 16.742C15.822 17.552 15.192 18.056 14.13 18.056C12.834 18.056 11.988 17.39 11.214 16.328L9.54 17.588Z" fill="currentColor"/>
</svg>
